<mxfile host="app.diagrams.net" agent="Mozilla/5.0 (Windows NT 10.0; Win64; x64) AppleWebKit/537.36 (KHTML, like Gecko) Chrome/128.0.0.0 Safari/537.36" version="24.7.10">
  <diagram name="Page-1" id="-8j9qX-T4FJcAuLZIA7l">
    <mxGraphModel dx="1416" dy="755" grid="1" gridSize="10" guides="1" tooltips="1" connect="1" arrows="1" fold="1" page="1" pageScale="1" pageWidth="850" pageHeight="1100" math="0" shadow="0">
      <root>
        <mxCell id="0" />
        <mxCell id="1" parent="0" />
        <mxCell id="85L4JiEXR2BOAUFdr-4B-39" value="" style="rounded=1;whiteSpace=wrap;html=1;" parent="1" vertex="1">
          <mxGeometry x="450" y="478" width="770" height="520" as="geometry" />
        </mxCell>
        <mxCell id="85L4JiEXR2BOAUFdr-4B-1" value="" style="shape=or;whiteSpace=wrap;html=1;" parent="1" vertex="1">
          <mxGeometry x="1470" y="714" width="60" height="80" as="geometry" />
        </mxCell>
        <mxCell id="85L4JiEXR2BOAUFdr-4B-2" value="" style="ellipse;whiteSpace=wrap;html=1;aspect=fixed;" parent="1" vertex="1">
          <mxGeometry x="1460" y="774" width="10" height="10" as="geometry" />
        </mxCell>
        <mxCell id="85L4JiEXR2BOAUFdr-4B-4" value="" style="endArrow=classic;html=1;rounded=0;exitX=1;exitY=0.5;exitDx=0;exitDy=0;exitPerimeter=0;" parent="1" source="85L4JiEXR2BOAUFdr-4B-1" edge="1">
          <mxGeometry width="50" height="50" relative="1" as="geometry">
            <mxPoint x="1500" y="854" as="sourcePoint" />
            <mxPoint x="1640" y="754" as="targetPoint" />
          </mxGeometry>
        </mxCell>
        <mxCell id="85L4JiEXR2BOAUFdr-4B-12" value="arvalid" style="text;html=1;align=center;verticalAlign=middle;resizable=0;points=[];autosize=1;strokeColor=none;fillColor=none;" parent="1" vertex="1">
          <mxGeometry x="1580" y="732" width="60" height="30" as="geometry" />
        </mxCell>
        <mxCell id="85L4JiEXR2BOAUFdr-4B-13" value="FLUSH" style="ellipse;whiteSpace=wrap;html=1;aspect=fixed;" parent="1" vertex="1">
          <mxGeometry x="580" y="668" width="80" height="80" as="geometry" />
        </mxCell>
        <mxCell id="85L4JiEXR2BOAUFdr-4B-14" value="FETCH_0" style="ellipse;whiteSpace=wrap;html=1;aspect=fixed;" parent="1" vertex="1">
          <mxGeometry x="770" y="518" width="80" height="80" as="geometry" />
        </mxCell>
        <mxCell id="85L4JiEXR2BOAUFdr-4B-15" value="FETCH_1" style="ellipse;whiteSpace=wrap;html=1;aspect=fixed;" parent="1" vertex="1">
          <mxGeometry x="940" y="678" width="80" height="80" as="geometry" />
        </mxCell>
        <mxCell id="85L4JiEXR2BOAUFdr-4B-16" value="FETCH_2" style="ellipse;whiteSpace=wrap;html=1;aspect=fixed;" parent="1" vertex="1">
          <mxGeometry x="760" y="848" width="80" height="80" as="geometry" />
        </mxCell>
        <mxCell id="85L4JiEXR2BOAUFdr-4B-17" style="edgeStyle=orthogonalEdgeStyle;rounded=0;orthogonalLoop=1;jettySize=auto;html=1;exitX=0.5;exitY=1;exitDx=0;exitDy=0;" parent="1" source="85L4JiEXR2BOAUFdr-4B-14" target="85L4JiEXR2BOAUFdr-4B-14" edge="1">
          <mxGeometry relative="1" as="geometry" />
        </mxCell>
        <mxCell id="85L4JiEXR2BOAUFdr-4B-18" value="" style="curved=1;endArrow=classic;html=1;rounded=0;exitX=0;exitY=0;exitDx=0;exitDy=0;entryX=0.079;entryY=0.255;entryDx=0;entryDy=0;entryPerimeter=0;" parent="1" source="85L4JiEXR2BOAUFdr-4B-13" target="85L4JiEXR2BOAUFdr-4B-14" edge="1">
          <mxGeometry width="50" height="50" relative="1" as="geometry">
            <mxPoint x="740" y="808" as="sourcePoint" />
            <mxPoint x="790" y="758" as="targetPoint" />
            <Array as="points">
              <mxPoint x="570" y="608" />
              <mxPoint x="650" y="558" />
            </Array>
          </mxGeometry>
        </mxCell>
        <mxCell id="85L4JiEXR2BOAUFdr-4B-19" value="" style="curved=1;endArrow=classic;html=1;rounded=0;exitX=0.317;exitY=0.964;exitDx=0;exitDy=0;exitPerimeter=0;" parent="1" source="85L4JiEXR2BOAUFdr-4B-14" target="85L4JiEXR2BOAUFdr-4B-13" edge="1">
          <mxGeometry width="50" height="50" relative="1" as="geometry">
            <mxPoint x="740" y="748" as="sourcePoint" />
            <mxPoint x="790" y="698" as="targetPoint" />
            <Array as="points">
              <mxPoint x="800" y="708" />
              <mxPoint x="740" y="738" />
            </Array>
          </mxGeometry>
        </mxCell>
        <mxCell id="85L4JiEXR2BOAUFdr-4B-20" value="" style="curved=1;endArrow=classic;html=1;rounded=0;exitX=1.025;exitY=0.459;exitDx=0;exitDy=0;exitPerimeter=0;entryX=0.421;entryY=0.03;entryDx=0;entryDy=0;entryPerimeter=0;" parent="1" source="85L4JiEXR2BOAUFdr-4B-14" target="85L4JiEXR2BOAUFdr-4B-15" edge="1">
          <mxGeometry width="50" height="50" relative="1" as="geometry">
            <mxPoint x="870" y="788" as="sourcePoint" />
            <mxPoint x="920" y="738" as="targetPoint" />
            <Array as="points">
              <mxPoint x="950" y="548" />
              <mxPoint x="980" y="598" />
            </Array>
          </mxGeometry>
        </mxCell>
        <mxCell id="85L4JiEXR2BOAUFdr-4B-21" value="" style="curved=1;endArrow=classic;html=1;rounded=0;entryX=1;entryY=1;entryDx=0;entryDy=0;exitX=0.007;exitY=0.352;exitDx=0;exitDy=0;exitPerimeter=0;" parent="1" source="85L4JiEXR2BOAUFdr-4B-15" target="85L4JiEXR2BOAUFdr-4B-14" edge="1">
          <mxGeometry width="50" height="50" relative="1" as="geometry">
            <mxPoint x="870" y="838" as="sourcePoint" />
            <mxPoint x="920" y="788" as="targetPoint" />
            <Array as="points">
              <mxPoint x="870" y="728" />
            </Array>
          </mxGeometry>
        </mxCell>
        <mxCell id="85L4JiEXR2BOAUFdr-4B-23" value="" style="curved=1;endArrow=classic;html=1;rounded=0;exitX=0.614;exitY=0.959;exitDx=0;exitDy=0;exitPerimeter=0;entryX=0.914;entryY=0.755;entryDx=0;entryDy=0;entryPerimeter=0;" parent="1" source="85L4JiEXR2BOAUFdr-4B-15" target="85L4JiEXR2BOAUFdr-4B-16" edge="1">
          <mxGeometry width="50" height="50" relative="1" as="geometry">
            <mxPoint x="870" y="888" as="sourcePoint" />
            <mxPoint x="920" y="838" as="targetPoint" />
            <Array as="points">
              <mxPoint x="1000" y="848" />
              <mxPoint x="900" y="918" />
            </Array>
          </mxGeometry>
        </mxCell>
        <mxCell id="85L4JiEXR2BOAUFdr-4B-24" value="" style="curved=1;endArrow=classic;html=1;rounded=0;exitX=0.729;exitY=0.055;exitDx=0;exitDy=0;exitPerimeter=0;entryX=0;entryY=1;entryDx=0;entryDy=0;" parent="1" source="85L4JiEXR2BOAUFdr-4B-16" target="85L4JiEXR2BOAUFdr-4B-15" edge="1">
          <mxGeometry width="50" height="50" relative="1" as="geometry">
            <mxPoint x="870" y="838" as="sourcePoint" />
            <mxPoint x="920" y="788" as="targetPoint" />
            <Array as="points">
              <mxPoint x="830" y="788" />
              <mxPoint x="880" y="738" />
            </Array>
          </mxGeometry>
        </mxCell>
        <mxCell id="85L4JiEXR2BOAUFdr-4B-25" value="" style="endArrow=classic;html=1;rounded=0;entryX=0;entryY=0.5;entryDx=0;entryDy=0;" parent="1" target="85L4JiEXR2BOAUFdr-4B-13" edge="1">
          <mxGeometry width="50" height="50" relative="1" as="geometry">
            <mxPoint x="530" y="708" as="sourcePoint" />
            <mxPoint x="520" y="683" as="targetPoint" />
          </mxGeometry>
        </mxCell>
        <mxCell id="85L4JiEXR2BOAUFdr-4B-26" value="~flush_req" style="text;html=1;align=center;verticalAlign=middle;whiteSpace=wrap;rounded=0;" parent="1" vertex="1">
          <mxGeometry x="630" y="538" width="60" height="10" as="geometry" />
        </mxCell>
        <mxCell id="85L4JiEXR2BOAUFdr-4B-30" value="flush_req" style="text;html=1;align=center;verticalAlign=middle;whiteSpace=wrap;rounded=0;" parent="1" vertex="1">
          <mxGeometry x="720" y="688" width="60" height="10" as="geometry" />
        </mxCell>
        <mxCell id="85L4JiEXR2BOAUFdr-4B-31" value="fetch_start" style="text;html=1;align=center;verticalAlign=middle;whiteSpace=wrap;rounded=0;" parent="1" vertex="1">
          <mxGeometry x="890" y="538" width="60" height="10" as="geometry" />
        </mxCell>
        <mxCell id="85L4JiEXR2BOAUFdr-4B-32" value="fetch_end &amp;amp; ~fetch_start" style="text;html=1;align=center;verticalAlign=middle;whiteSpace=wrap;rounded=0;" parent="1" vertex="1">
          <mxGeometry x="860" y="628" width="70" height="10" as="geometry" />
        </mxCell>
        <mxCell id="85L4JiEXR2BOAUFdr-4B-33" value="fetch_start &amp;amp; ~fetch_end" style="text;html=1;align=center;verticalAlign=middle;whiteSpace=wrap;rounded=0;" parent="1" vertex="1">
          <mxGeometry x="990" y="838" width="80" height="10" as="geometry" />
        </mxCell>
        <mxCell id="85L4JiEXR2BOAUFdr-4B-36" value="fetch_end" style="text;html=1;align=center;verticalAlign=middle;whiteSpace=wrap;rounded=0;" parent="1" vertex="1">
          <mxGeometry x="820" y="808" width="80" height="10" as="geometry" />
        </mxCell>
        <mxCell id="85L4JiEXR2BOAUFdr-4B-40" value="flush_req" style="text;html=1;align=center;verticalAlign=middle;resizable=0;points=[];autosize=1;strokeColor=none;fillColor=none;" parent="1" vertex="1">
          <mxGeometry x="440" y="728" width="80" height="30" as="geometry" />
        </mxCell>
        <mxCell id="85L4JiEXR2BOAUFdr-4B-41" value="fetch_start" style="text;html=1;align=center;verticalAlign=middle;resizable=0;points=[];autosize=1;strokeColor=none;fillColor=none;" parent="1" vertex="1">
          <mxGeometry x="442" y="808" width="80" height="30" as="geometry" />
        </mxCell>
        <mxCell id="85L4JiEXR2BOAUFdr-4B-42" value="&lt;div&gt;fetch_end&lt;/div&gt;" style="text;html=1;align=center;verticalAlign=middle;resizable=0;points=[];autosize=1;strokeColor=none;fillColor=none;" parent="1" vertex="1">
          <mxGeometry x="440" y="898" width="80" height="30" as="geometry" />
        </mxCell>
        <mxCell id="85L4JiEXR2BOAUFdr-4B-43" value="state_fetch_0" style="text;html=1;align=center;verticalAlign=middle;resizable=0;points=[];autosize=1;strokeColor=none;fillColor=none;" parent="1" vertex="1">
          <mxGeometry x="1129" y="671" width="100" height="30" as="geometry" />
        </mxCell>
        <mxCell id="85L4JiEXR2BOAUFdr-4B-44" value="state_fetch_1" style="text;html=1;align=center;verticalAlign=middle;resizable=0;points=[];autosize=1;strokeColor=none;fillColor=none;" parent="1" vertex="1">
          <mxGeometry x="1129" y="761" width="100" height="30" as="geometry" />
        </mxCell>
        <mxCell id="85L4JiEXR2BOAUFdr-4B-45" value="state_fetch_2" style="text;html=1;align=center;verticalAlign=middle;resizable=0;points=[];autosize=1;strokeColor=none;fillColor=none;" parent="1" vertex="1">
          <mxGeometry x="1131" y="851" width="100" height="30" as="geometry" />
        </mxCell>
        <mxCell id="85L4JiEXR2BOAUFdr-4B-46" value="state_flush" style="text;html=1;align=center;verticalAlign=middle;resizable=0;points=[];autosize=1;strokeColor=none;fillColor=none;" parent="1" vertex="1">
          <mxGeometry x="1144" y="591" width="80" height="30" as="geometry" />
        </mxCell>
        <mxCell id="85L4JiEXR2BOAUFdr-4B-47" value="" style="endArrow=classic;html=1;rounded=0;" parent="1" edge="1">
          <mxGeometry width="50" height="50" relative="1" as="geometry">
            <mxPoint x="1220" y="608" as="sourcePoint" />
            <mxPoint x="1420" y="608" as="targetPoint" />
          </mxGeometry>
        </mxCell>
        <mxCell id="85L4JiEXR2BOAUFdr-4B-48" value="flush_ack" style="text;html=1;align=center;verticalAlign=middle;resizable=0;points=[];autosize=1;strokeColor=none;fillColor=none;" parent="1" vertex="1">
          <mxGeometry x="1330" y="568" width="80" height="30" as="geometry" />
        </mxCell>
        <mxCell id="85L4JiEXR2BOAUFdr-4B-49" value="" style="shape=xor;whiteSpace=wrap;html=1;" parent="1" vertex="1">
          <mxGeometry x="1264" y="667" width="85" height="127" as="geometry" />
        </mxCell>
        <mxCell id="85L4JiEXR2BOAUFdr-4B-50" value="" style="endArrow=none;html=1;rounded=0;entryX=0.127;entryY=0.151;entryDx=0;entryDy=0;entryPerimeter=0;" parent="1" target="85L4JiEXR2BOAUFdr-4B-49" edge="1">
          <mxGeometry width="50" height="50" relative="1" as="geometry">
            <mxPoint x="1220" y="685.9251274426508" as="sourcePoint" />
            <mxPoint x="1264.1599999999999" y="685.8589999999999" as="targetPoint" />
          </mxGeometry>
        </mxCell>
        <mxCell id="85L4JiEXR2BOAUFdr-4B-51" value="" style="endArrow=none;html=1;rounded=0;entryX=0.111;entryY=0.107;entryDx=0;entryDy=0;entryPerimeter=0;" parent="1" edge="1">
          <mxGeometry width="50" height="50" relative="1" as="geometry">
            <mxPoint x="1220" y="776.4651274426508" as="sourcePoint" />
            <mxPoint x="1274" y="775.54" as="targetPoint" />
          </mxGeometry>
        </mxCell>
        <mxCell id="85L4JiEXR2BOAUFdr-4B-52" value="" style="endArrow=none;html=1;rounded=0;entryX=0;entryY=0.25;entryDx=0;entryDy=0;entryPerimeter=0;" parent="1" target="85L4JiEXR2BOAUFdr-4B-1" edge="1">
          <mxGeometry width="50" height="50" relative="1" as="geometry">
            <mxPoint x="1349" y="731.9951274426508" as="sourcePoint" />
            <mxPoint x="1404" y="732.0699999999999" as="targetPoint" />
          </mxGeometry>
        </mxCell>
        <mxCell id="85L4JiEXR2BOAUFdr-4B-53" value="" style="endArrow=none;html=1;rounded=0;entryX=0.111;entryY=0.107;entryDx=0;entryDy=0;entryPerimeter=0;" parent="1" edge="1">
          <mxGeometry width="50" height="50" relative="1" as="geometry">
            <mxPoint x="1430" y="779" as="sourcePoint" />
            <mxPoint x="1460" y="778.54" as="targetPoint" />
          </mxGeometry>
        </mxCell>
        <mxCell id="85L4JiEXR2BOAUFdr-4B-54" value="" style="endArrow=none;html=1;rounded=0;exitX=0.25;exitY=0.667;exitDx=0;exitDy=0;exitPerimeter=0;" parent="1" edge="1">
          <mxGeometry width="50" height="50" relative="1" as="geometry">
            <mxPoint x="450" y="745.01" as="sourcePoint" />
            <mxPoint x="370" y="745" as="targetPoint" />
          </mxGeometry>
        </mxCell>
        <mxCell id="85L4JiEXR2BOAUFdr-4B-55" value="" style="endArrow=none;html=1;rounded=0;" parent="1" edge="1">
          <mxGeometry width="50" height="50" relative="1" as="geometry">
            <mxPoint x="370" y="448" as="sourcePoint" />
            <mxPoint x="371" y="746" as="targetPoint" />
          </mxGeometry>
        </mxCell>
        <mxCell id="85L4JiEXR2BOAUFdr-4B-56" value="" style="endArrow=none;html=1;rounded=0;" parent="1" edge="1">
          <mxGeometry width="50" height="50" relative="1" as="geometry">
            <mxPoint x="1430" y="448" as="sourcePoint" />
            <mxPoint x="371" y="449" as="targetPoint" />
          </mxGeometry>
        </mxCell>
        <mxCell id="85L4JiEXR2BOAUFdr-4B-58" value="" style="endArrow=none;html=1;rounded=0;" parent="1" edge="1">
          <mxGeometry width="50" height="50" relative="1" as="geometry">
            <mxPoint x="1430" y="778" as="sourcePoint" />
            <mxPoint x="1430" y="448" as="targetPoint" />
          </mxGeometry>
        </mxCell>
        <mxCell id="85L4JiEXR2BOAUFdr-4B-60" value="" style="endArrow=classic;html=1;rounded=0;" parent="1" edge="1">
          <mxGeometry width="50" height="50" relative="1" as="geometry">
            <mxPoint x="270" y="744" as="sourcePoint" />
            <mxPoint x="370" y="744" as="targetPoint" />
          </mxGeometry>
        </mxCell>
        <mxCell id="85L4JiEXR2BOAUFdr-4B-61" value="flush_req" style="text;html=1;align=center;verticalAlign=middle;resizable=0;points=[];autosize=1;strokeColor=none;fillColor=none;" parent="1" vertex="1">
          <mxGeometry x="270" y="714" width="80" height="30" as="geometry" />
        </mxCell>
        <mxCell id="85L4JiEXR2BOAUFdr-4B-62" value="&lt;div&gt;pc&lt;/div&gt;&lt;div&gt;32b&lt;br&gt;&lt;/div&gt;" style="rounded=0;whiteSpace=wrap;html=1;" parent="1" vertex="1">
          <mxGeometry x="626.5" y="1078" width="70" height="100" as="geometry" />
        </mxCell>
        <mxCell id="85L4JiEXR2BOAUFdr-4B-63" value="" style="triangle;whiteSpace=wrap;html=1;" parent="1" vertex="1">
          <mxGeometry x="626.5" y="1128" width="15" height="20" as="geometry" />
        </mxCell>
        <mxCell id="85L4JiEXR2BOAUFdr-4B-64" value="D" style="text;html=1;align=center;verticalAlign=middle;resizable=0;points=[];autosize=1;strokeColor=none;fillColor=none;" parent="1" vertex="1">
          <mxGeometry x="619" y="1078" width="30" height="30" as="geometry" />
        </mxCell>
        <mxCell id="85L4JiEXR2BOAUFdr-4B-65" value="Q" style="text;html=1;align=center;verticalAlign=middle;resizable=0;points=[];autosize=1;strokeColor=none;fillColor=none;" parent="1" vertex="1">
          <mxGeometry x="672.5" y="1079" width="30" height="30" as="geometry" />
        </mxCell>
        <mxCell id="85L4JiEXR2BOAUFdr-4B-66" value="En" style="text;html=1;align=center;verticalAlign=middle;resizable=0;points=[];autosize=1;strokeColor=none;fillColor=none;" parent="1" vertex="1">
          <mxGeometry x="619" y="1148" width="40" height="30" as="geometry" />
        </mxCell>
        <mxCell id="85L4JiEXR2BOAUFdr-4B-67" value="&lt;div&gt;pc_inc&lt;/div&gt;&lt;div&gt;32b&lt;br&gt;&lt;/div&gt;" style="rounded=0;whiteSpace=wrap;html=1;" parent="1" vertex="1">
          <mxGeometry x="905.75" y="1078" width="70" height="100" as="geometry" />
        </mxCell>
        <mxCell id="85L4JiEXR2BOAUFdr-4B-68" value="" style="triangle;whiteSpace=wrap;html=1;" parent="1" vertex="1">
          <mxGeometry x="905.75" y="1128" width="15" height="20" as="geometry" />
        </mxCell>
        <mxCell id="85L4JiEXR2BOAUFdr-4B-69" value="D" style="text;html=1;align=center;verticalAlign=middle;resizable=0;points=[];autosize=1;strokeColor=none;fillColor=none;" parent="1" vertex="1">
          <mxGeometry x="898.25" y="1078" width="30" height="30" as="geometry" />
        </mxCell>
        <mxCell id="85L4JiEXR2BOAUFdr-4B-70" value="Q" style="text;html=1;align=center;verticalAlign=middle;resizable=0;points=[];autosize=1;strokeColor=none;fillColor=none;" parent="1" vertex="1">
          <mxGeometry x="951.75" y="1079" width="30" height="30" as="geometry" />
        </mxCell>
        <mxCell id="85L4JiEXR2BOAUFdr-4B-71" value="En" style="text;html=1;align=center;verticalAlign=middle;resizable=0;points=[];autosize=1;strokeColor=none;fillColor=none;" parent="1" vertex="1">
          <mxGeometry x="898.25" y="1148" width="40" height="30" as="geometry" />
        </mxCell>
        <mxCell id="85L4JiEXR2BOAUFdr-4B-72" value="+ 4" style="ellipse;whiteSpace=wrap;html=1;aspect=fixed;" parent="1" vertex="1">
          <mxGeometry x="781.75" y="1052" width="80" height="80" as="geometry" />
        </mxCell>
        <mxCell id="85L4JiEXR2BOAUFdr-4B-73" value="" style="endArrow=none;html=1;rounded=0;entryX=0;entryY=0.5;entryDx=0;entryDy=0;" parent="1" target="85L4JiEXR2BOAUFdr-4B-72" edge="1">
          <mxGeometry width="50" height="50" relative="1" as="geometry">
            <mxPoint x="697.5" y="1094.198347107438" as="sourcePoint" />
            <mxPoint x="743" y="1094.8" as="targetPoint" />
          </mxGeometry>
        </mxCell>
        <mxCell id="85L4JiEXR2BOAUFdr-4B-74" value="" style="endArrow=none;html=1;rounded=0;exitX=1;exitY=0.5;exitDx=0;exitDy=0;" parent="1" source="85L4JiEXR2BOAUFdr-4B-72" edge="1">
          <mxGeometry width="50" height="50" relative="1" as="geometry">
            <mxPoint x="864.75" y="1092.5983471074378" as="sourcePoint" />
            <mxPoint x="904.75" y="1093" as="targetPoint" />
          </mxGeometry>
        </mxCell>
        <mxCell id="85L4JiEXR2BOAUFdr-4B-76" value="" style="shape=or;whiteSpace=wrap;html=1;" parent="1" vertex="1">
          <mxGeometry x="320" y="873" width="60" height="80" as="geometry" />
        </mxCell>
        <mxCell id="85L4JiEXR2BOAUFdr-4B-77" value="" style="shape=or;whiteSpace=wrap;html=1;" parent="1" vertex="1">
          <mxGeometry x="240" y="783" width="60" height="80" as="geometry" />
        </mxCell>
        <mxCell id="85L4JiEXR2BOAUFdr-4B-78" value="" style="endArrow=none;html=1;rounded=0;entryX=1;entryY=0.5;entryDx=0;entryDy=0;entryPerimeter=0;" parent="1" target="85L4JiEXR2BOAUFdr-4B-77" edge="1">
          <mxGeometry width="50" height="50" relative="1" as="geometry">
            <mxPoint x="449" y="822.9472527472528" as="sourcePoint" />
            <mxPoint x="307" y="822.76" as="targetPoint" />
          </mxGeometry>
        </mxCell>
        <mxCell id="85L4JiEXR2BOAUFdr-4B-80" value="" style="endArrow=none;html=1;rounded=0;entryX=1;entryY=0.5;entryDx=0;entryDy=0;entryPerimeter=0;" parent="1" target="85L4JiEXR2BOAUFdr-4B-76" edge="1">
          <mxGeometry width="50" height="50" relative="1" as="geometry">
            <mxPoint x="449" y="912.7572527472528" as="sourcePoint" />
            <mxPoint x="300" y="912.81" as="targetPoint" />
          </mxGeometry>
        </mxCell>
        <mxCell id="85L4JiEXR2BOAUFdr-4B-81" value="fetch_beat" style="shape=or;whiteSpace=wrap;html=1;" parent="1" vertex="1">
          <mxGeometry x="160" y="898" width="60" height="80" as="geometry" />
        </mxCell>
        <mxCell id="85L4JiEXR2BOAUFdr-4B-84" value="" style="endArrow=none;html=1;rounded=0;entryX=1.057;entryY=0.505;entryDx=0;entryDy=0;entryPerimeter=0;" parent="1" edge="1">
          <mxGeometry width="50" height="50" relative="1" as="geometry">
            <mxPoint x="320" y="938" as="sourcePoint" />
            <mxPoint x="220.42000000000007" y="938.4" as="targetPoint" />
          </mxGeometry>
        </mxCell>
        <mxCell id="85L4JiEXR2BOAUFdr-4B-85" value="" style="endArrow=classic;html=1;rounded=0;entryX=-0.033;entryY=0.69;entryDx=0;entryDy=0;entryPerimeter=0;" parent="1" edge="1">
          <mxGeometry width="50" height="50" relative="1" as="geometry">
            <mxPoint x="160" y="842.8" as="sourcePoint" />
            <mxPoint x="238.01999999999998" y="843" as="targetPoint" />
          </mxGeometry>
        </mxCell>
        <mxCell id="85L4JiEXR2BOAUFdr-4B-86" value="arready" style="text;html=1;align=center;verticalAlign=middle;resizable=0;points=[];autosize=1;strokeColor=none;fillColor=none;" parent="1" vertex="1">
          <mxGeometry x="160" y="818" width="70" height="30" as="geometry" />
        </mxCell>
        <mxCell id="85L4JiEXR2BOAUFdr-4B-87" value="" style="endArrow=none;html=1;rounded=0;" parent="1" edge="1">
          <mxGeometry width="50" height="50" relative="1" as="geometry">
            <mxPoint x="240" y="797.9972527472528" as="sourcePoint" />
            <mxPoint x="210" y="798" as="targetPoint" />
          </mxGeometry>
        </mxCell>
        <mxCell id="85L4JiEXR2BOAUFdr-4B-88" value="" style="endArrow=none;html=1;rounded=0;" parent="1" edge="1">
          <mxGeometry width="50" height="50" relative="1" as="geometry">
            <mxPoint x="210" y="408" as="sourcePoint" />
            <mxPoint x="210" y="798" as="targetPoint" />
          </mxGeometry>
        </mxCell>
        <mxCell id="85L4JiEXR2BOAUFdr-4B-89" value="" style="endArrow=none;html=1;rounded=0;" parent="1" edge="1">
          <mxGeometry width="50" height="50" relative="1" as="geometry">
            <mxPoint x="1570" y="418" as="sourcePoint" />
            <mxPoint x="210" y="408" as="targetPoint" />
          </mxGeometry>
        </mxCell>
        <mxCell id="85L4JiEXR2BOAUFdr-4B-90" value="" style="endArrow=none;html=1;rounded=0;" parent="1" edge="1">
          <mxGeometry width="50" height="50" relative="1" as="geometry">
            <mxPoint x="1565" y="754" as="sourcePoint" />
            <mxPoint x="1565" y="418" as="targetPoint" />
          </mxGeometry>
        </mxCell>
        <mxCell id="85L4JiEXR2BOAUFdr-4B-93" value="" style="endArrow=classic;html=1;rounded=0;entryX=-0.033;entryY=0.69;entryDx=0;entryDy=0;entryPerimeter=0;" parent="1" edge="1">
          <mxGeometry width="50" height="50" relative="1" as="geometry">
            <mxPoint x="81.98" y="962.8" as="sourcePoint" />
            <mxPoint x="160" y="963" as="targetPoint" />
          </mxGeometry>
        </mxCell>
        <mxCell id="85L4JiEXR2BOAUFdr-4B-94" value="rready" style="text;html=1;align=center;verticalAlign=middle;resizable=0;points=[];autosize=1;strokeColor=none;fillColor=none;" parent="1" vertex="1">
          <mxGeometry x="86.98" y="938" width="60" height="30" as="geometry" />
        </mxCell>
        <mxCell id="85L4JiEXR2BOAUFdr-4B-95" value="" style="endArrow=classic;html=1;rounded=0;entryX=-0.033;entryY=0.69;entryDx=0;entryDy=0;entryPerimeter=0;" parent="1" edge="1">
          <mxGeometry width="50" height="50" relative="1" as="geometry">
            <mxPoint x="241.98000000000002" y="897.8" as="sourcePoint" />
            <mxPoint x="320" y="898" as="targetPoint" />
          </mxGeometry>
        </mxCell>
        <mxCell id="85L4JiEXR2BOAUFdr-4B-96" value="rlast" style="text;html=1;align=center;verticalAlign=middle;resizable=0;points=[];autosize=1;strokeColor=none;fillColor=none;" parent="1" vertex="1">
          <mxGeometry x="251.98000000000002" y="873" width="50" height="30" as="geometry" />
        </mxCell>
        <mxCell id="85L4JiEXR2BOAUFdr-4B-98" value="" style="endArrow=classic;html=1;rounded=0;entryX=-0.033;entryY=0.69;entryDx=0;entryDy=0;entryPerimeter=0;" parent="1" edge="1">
          <mxGeometry width="50" height="50" relative="1" as="geometry">
            <mxPoint x="60" y="362.79999999999995" as="sourcePoint" />
            <mxPoint x="138.01999999999998" y="363" as="targetPoint" />
          </mxGeometry>
        </mxCell>
        <mxCell id="85L4JiEXR2BOAUFdr-4B-99" value="ready_i" style="text;html=1;align=center;verticalAlign=middle;resizable=0;points=[];autosize=1;strokeColor=none;fillColor=none;" parent="1" vertex="1">
          <mxGeometry x="60" y="338" width="70" height="30" as="geometry" />
        </mxCell>
        <mxCell id="85L4JiEXR2BOAUFdr-4B-100" value="" style="endArrow=classic;html=1;rounded=0;entryX=-0.033;entryY=0.69;entryDx=0;entryDy=0;entryPerimeter=0;" parent="1" edge="1">
          <mxGeometry width="50" height="50" relative="1" as="geometry">
            <mxPoint x="130" y="362.79999999999995" as="sourcePoint" />
            <mxPoint x="208.01999999999998" y="363" as="targetPoint" />
          </mxGeometry>
        </mxCell>
        <mxCell id="85L4JiEXR2BOAUFdr-4B-101" value="rready" style="text;html=1;align=center;verticalAlign=middle;resizable=0;points=[];autosize=1;strokeColor=none;fillColor=none;" parent="1" vertex="1">
          <mxGeometry x="135" y="338" width="60" height="30" as="geometry" />
        </mxCell>
        <mxCell id="85L4JiEXR2BOAUFdr-4B-102" value="" style="endArrow=none;html=1;rounded=0;" parent="1" edge="1">
          <mxGeometry width="50" height="50" relative="1" as="geometry">
            <mxPoint x="137" y="363" as="sourcePoint" />
            <mxPoint x="137" y="918" as="targetPoint" />
          </mxGeometry>
        </mxCell>
        <mxCell id="85L4JiEXR2BOAUFdr-4B-104" value="" style="endArrow=none;html=1;rounded=0;exitX=0;exitY=0.25;exitDx=0;exitDy=0;exitPerimeter=0;" parent="1" source="85L4JiEXR2BOAUFdr-4B-81" edge="1">
          <mxGeometry width="50" height="50" relative="1" as="geometry">
            <mxPoint x="155.58" y="918" as="sourcePoint" />
            <mxPoint x="136" y="918" as="targetPoint" />
          </mxGeometry>
        </mxCell>
        <mxCell id="85L4JiEXR2BOAUFdr-4B-105" value="" style="endArrow=classic;html=1;rounded=0;entryX=-0.033;entryY=0.69;entryDx=0;entryDy=0;entryPerimeter=0;" parent="1" edge="1">
          <mxGeometry width="50" height="50" relative="1" as="geometry">
            <mxPoint x="260" y="362.79999999999995" as="sourcePoint" />
            <mxPoint x="338.02" y="363" as="targetPoint" />
          </mxGeometry>
        </mxCell>
        <mxCell id="85L4JiEXR2BOAUFdr-4B-106" value="rdata" style="text;html=1;align=center;verticalAlign=middle;resizable=0;points=[];autosize=1;strokeColor=none;fillColor=none;" parent="1" vertex="1">
          <mxGeometry x="270" y="338" width="50" height="30" as="geometry" />
        </mxCell>
        <mxCell id="85L4JiEXR2BOAUFdr-4B-107" value="" style="endArrow=classic;html=1;rounded=0;entryX=-0.033;entryY=0.69;entryDx=0;entryDy=0;entryPerimeter=0;" parent="1" edge="1">
          <mxGeometry width="50" height="50" relative="1" as="geometry">
            <mxPoint x="330" y="362.79999999999995" as="sourcePoint" />
            <mxPoint x="408.02" y="363" as="targetPoint" />
          </mxGeometry>
        </mxCell>
        <mxCell id="85L4JiEXR2BOAUFdr-4B-108" value="out.data" style="text;html=1;align=center;verticalAlign=middle;resizable=0;points=[];autosize=1;strokeColor=none;fillColor=none;" parent="1" vertex="1">
          <mxGeometry x="330" y="338" width="70" height="30" as="geometry" />
        </mxCell>
        <mxCell id="85L4JiEXR2BOAUFdr-4B-109" value="" style="endArrow=classic;html=1;rounded=0;entryX=-0.033;entryY=0.69;entryDx=0;entryDy=0;entryPerimeter=0;" parent="1" edge="1">
          <mxGeometry width="50" height="50" relative="1" as="geometry">
            <mxPoint x="440" y="362.79999999999995" as="sourcePoint" />
            <mxPoint x="518.02" y="363" as="targetPoint" />
          </mxGeometry>
        </mxCell>
        <mxCell id="85L4JiEXR2BOAUFdr-4B-110" value="rresp" style="text;html=1;align=center;verticalAlign=middle;resizable=0;points=[];autosize=1;strokeColor=none;fillColor=none;" parent="1" vertex="1">
          <mxGeometry x="450" y="338" width="50" height="30" as="geometry" />
        </mxCell>
        <mxCell id="85L4JiEXR2BOAUFdr-4B-111" value="" style="endArrow=classic;html=1;rounded=0;entryX=-0.033;entryY=0.69;entryDx=0;entryDy=0;entryPerimeter=0;" parent="1" edge="1">
          <mxGeometry width="50" height="50" relative="1" as="geometry">
            <mxPoint x="600" y="362.79999999999995" as="sourcePoint" />
            <mxPoint x="678.02" y="363" as="targetPoint" />
          </mxGeometry>
        </mxCell>
        <mxCell id="85L4JiEXR2BOAUFdr-4B-112" value="out.fault" style="text;html=1;align=center;verticalAlign=middle;resizable=0;points=[];autosize=1;strokeColor=none;fillColor=none;" parent="1" vertex="1">
          <mxGeometry x="600" y="338" width="70" height="30" as="geometry" />
        </mxCell>
        <mxCell id="85L4JiEXR2BOAUFdr-4B-113" value="AXI error?" style="ellipse;whiteSpace=wrap;html=1;aspect=fixed;" parent="1" vertex="1">
          <mxGeometry x="520" y="318" width="80" height="80" as="geometry" />
        </mxCell>
        <mxCell id="85L4JiEXR2BOAUFdr-4B-115" value="&lt;div&gt;burst_base&lt;/div&gt;&lt;div&gt;32b&lt;br&gt;&lt;/div&gt;" style="rounded=0;whiteSpace=wrap;html=1;" parent="1" vertex="1">
          <mxGeometry x="628.3499999999999" y="1399" width="70" height="100" as="geometry" />
        </mxCell>
        <mxCell id="85L4JiEXR2BOAUFdr-4B-116" value="" style="triangle;whiteSpace=wrap;html=1;" parent="1" vertex="1">
          <mxGeometry x="628.3499999999999" y="1449" width="15" height="20" as="geometry" />
        </mxCell>
        <mxCell id="85L4JiEXR2BOAUFdr-4B-117" value="D" style="text;html=1;align=center;verticalAlign=middle;resizable=0;points=[];autosize=1;strokeColor=none;fillColor=none;" parent="1" vertex="1">
          <mxGeometry x="620.8499999999999" y="1399" width="30" height="30" as="geometry" />
        </mxCell>
        <mxCell id="85L4JiEXR2BOAUFdr-4B-118" value="Q" style="text;html=1;align=center;verticalAlign=middle;resizable=0;points=[];autosize=1;strokeColor=none;fillColor=none;" parent="1" vertex="1">
          <mxGeometry x="674.3499999999999" y="1400" width="30" height="30" as="geometry" />
        </mxCell>
        <mxCell id="85L4JiEXR2BOAUFdr-4B-119" value="En" style="text;html=1;align=center;verticalAlign=middle;resizable=0;points=[];autosize=1;strokeColor=none;fillColor=none;" parent="1" vertex="1">
          <mxGeometry x="620.8499999999999" y="1469" width="40" height="30" as="geometry" />
        </mxCell>
        <mxCell id="85L4JiEXR2BOAUFdr-4B-120" value="+ (4 * 8)" style="ellipse;whiteSpace=wrap;html=1;aspect=fixed;" parent="1" vertex="1">
          <mxGeometry x="792.5999999999999" y="1375" width="80" height="80" as="geometry" />
        </mxCell>
        <mxCell id="85L4JiEXR2BOAUFdr-4B-121" value="" style="shape=trapezoid;perimeter=trapezoidPerimeter;whiteSpace=wrap;html=1;fixedSize=1;direction=south;" parent="1" vertex="1">
          <mxGeometry x="531.5999999999999" y="1354" width="60" height="120" as="geometry" />
        </mxCell>
        <mxCell id="85L4JiEXR2BOAUFdr-4B-122" value="" style="endArrow=none;html=1;rounded=0;" parent="1" edge="1">
          <mxGeometry width="50" height="50" relative="1" as="geometry">
            <mxPoint x="592.5999999999999" y="1414" as="sourcePoint" />
            <mxPoint x="628.3499999999999" y="1415" as="targetPoint" />
          </mxGeometry>
        </mxCell>
        <mxCell id="85L4JiEXR2BOAUFdr-4B-123" value="" style="endArrow=none;html=1;rounded=0;" parent="1" edge="1">
          <mxGeometry width="50" height="50" relative="1" as="geometry">
            <mxPoint x="494.5999999999999" y="1444" as="sourcePoint" />
            <mxPoint x="530.47" y="1445" as="targetPoint" />
          </mxGeometry>
        </mxCell>
        <mxCell id="85L4JiEXR2BOAUFdr-4B-124" value="" style="endArrow=none;html=1;rounded=0;" parent="1" edge="1">
          <mxGeometry width="50" height="50" relative="1" as="geometry">
            <mxPoint x="495.22" y="1514" as="sourcePoint" />
            <mxPoint x="891.97" y="1514" as="targetPoint" />
          </mxGeometry>
        </mxCell>
        <mxCell id="85L4JiEXR2BOAUFdr-4B-125" value="" style="endArrow=none;html=1;rounded=0;" parent="1" edge="1">
          <mxGeometry width="50" height="50" relative="1" as="geometry">
            <mxPoint x="494.5999999999999" y="1514" as="sourcePoint" />
            <mxPoint x="494.5999999999999" y="1444" as="targetPoint" />
          </mxGeometry>
        </mxCell>
        <mxCell id="85L4JiEXR2BOAUFdr-4B-126" value="" style="endArrow=none;html=1;rounded=0;entryX=0;entryY=0.5;entryDx=0;entryDy=0;" parent="1" target="85L4JiEXR2BOAUFdr-4B-120" edge="1">
          <mxGeometry width="50" height="50" relative="1" as="geometry">
            <mxPoint x="698.3499999999999" y="1414.5" as="sourcePoint" />
            <mxPoint x="734.0999999999999" y="1415.5" as="targetPoint" />
          </mxGeometry>
        </mxCell>
        <mxCell id="85L4JiEXR2BOAUFdr-4B-127" value="" style="endArrow=none;html=1;rounded=0;" parent="1" edge="1">
          <mxGeometry width="50" height="50" relative="1" as="geometry">
            <mxPoint x="892.5999999999999" y="1514" as="sourcePoint" />
            <mxPoint x="892.5999999999999" y="1414" as="targetPoint" />
          </mxGeometry>
        </mxCell>
        <mxCell id="85L4JiEXR2BOAUFdr-4B-128" value="" style="endArrow=none;html=1;rounded=0;" parent="1" edge="1">
          <mxGeometry width="50" height="50" relative="1" as="geometry">
            <mxPoint x="872.5999999999999" y="1414.5" as="sourcePoint" />
            <mxPoint x="892.5999999999999" y="1415" as="targetPoint" />
          </mxGeometry>
        </mxCell>
        <mxCell id="85L4JiEXR2BOAUFdr-4B-129" value="" style="shape=trapezoid;perimeter=trapezoidPerimeter;whiteSpace=wrap;html=1;fixedSize=1;direction=south;" parent="1" vertex="1">
          <mxGeometry x="522" y="1033" width="60" height="120" as="geometry" />
        </mxCell>
        <mxCell id="85L4JiEXR2BOAUFdr-4B-131" value="" style="endArrow=none;html=1;rounded=0;entryX=0;entryY=0.5;entryDx=0;entryDy=0;" parent="1" edge="1">
          <mxGeometry width="50" height="50" relative="1" as="geometry">
            <mxPoint x="580" y="1093" as="sourcePoint" />
            <mxPoint x="626.5" y="1093.4" as="targetPoint" />
          </mxGeometry>
        </mxCell>
        <mxCell id="85L4JiEXR2BOAUFdr-4B-132" value="" style="endArrow=none;html=1;rounded=0;" parent="1" edge="1">
          <mxGeometry width="50" height="50" relative="1" as="geometry">
            <mxPoint x="484.13" y="1132" as="sourcePoint" />
            <mxPoint x="520" y="1133" as="targetPoint" />
          </mxGeometry>
        </mxCell>
        <mxCell id="85L4JiEXR2BOAUFdr-4B-133" value="" style="endArrow=none;html=1;rounded=0;" parent="1" edge="1">
          <mxGeometry width="50" height="50" relative="1" as="geometry">
            <mxPoint x="484.13" y="1202" as="sourcePoint" />
            <mxPoint x="484.13" y="1132" as="targetPoint" />
          </mxGeometry>
        </mxCell>
        <mxCell id="85L4JiEXR2BOAUFdr-4B-134" value="" style="endArrow=none;html=1;rounded=0;" parent="1" edge="1">
          <mxGeometry width="50" height="50" relative="1" as="geometry">
            <mxPoint x="484.13" y="1202" as="sourcePoint" />
            <mxPoint x="1000" y="1208" as="targetPoint" />
          </mxGeometry>
        </mxCell>
        <mxCell id="85L4JiEXR2BOAUFdr-4B-135" value="" style="endArrow=none;html=1;rounded=0;" parent="1" edge="1">
          <mxGeometry width="50" height="50" relative="1" as="geometry">
            <mxPoint x="996" y="1208" as="sourcePoint" />
            <mxPoint x="996" y="1094" as="targetPoint" />
          </mxGeometry>
        </mxCell>
        <mxCell id="85L4JiEXR2BOAUFdr-4B-136" value="" style="endArrow=none;html=1;rounded=0;" parent="1" edge="1">
          <mxGeometry width="50" height="50" relative="1" as="geometry">
            <mxPoint x="976" y="1094.5" as="sourcePoint" />
            <mxPoint x="996" y="1095" as="targetPoint" />
          </mxGeometry>
        </mxCell>
        <mxCell id="85L4JiEXR2BOAUFdr-4B-137" value="" style="shape=xor;whiteSpace=wrap;html=1;" parent="1" vertex="1">
          <mxGeometry x="534.25" y="1248" width="60" height="80" as="geometry" />
        </mxCell>
        <mxCell id="85L4JiEXR2BOAUFdr-4B-138" value="" style="endArrow=none;html=1;rounded=0;entryX=0;entryY=0.5;entryDx=0;entryDy=0;" parent="1" edge="1">
          <mxGeometry width="50" height="50" relative="1" as="geometry">
            <mxPoint x="610" y="1163" as="sourcePoint" />
            <mxPoint x="626.5" y="1163.1999999999998" as="targetPoint" />
          </mxGeometry>
        </mxCell>
        <mxCell id="85L4JiEXR2BOAUFdr-4B-141" value="" style="endArrow=none;html=1;rounded=0;entryX=0;entryY=0.5;entryDx=0;entryDy=0;" parent="1" edge="1">
          <mxGeometry width="50" height="50" relative="1" as="geometry">
            <mxPoint x="594.25" y="1288" as="sourcePoint" />
            <mxPoint x="610.75" y="1288.1999999999998" as="targetPoint" />
          </mxGeometry>
        </mxCell>
        <mxCell id="85L4JiEXR2BOAUFdr-4B-142" value="" style="endArrow=none;html=1;rounded=0;" parent="1" edge="1">
          <mxGeometry width="50" height="50" relative="1" as="geometry">
            <mxPoint x="610" y="1288" as="sourcePoint" />
            <mxPoint x="610" y="1162" as="targetPoint" />
          </mxGeometry>
        </mxCell>
        <mxCell id="85L4JiEXR2BOAUFdr-4B-143" value="" style="shape=xor;whiteSpace=wrap;html=1;" parent="1" vertex="1">
          <mxGeometry x="813.5" y="1249" width="60" height="80" as="geometry" />
        </mxCell>
        <mxCell id="85L4JiEXR2BOAUFdr-4B-144" value="" style="endArrow=none;html=1;rounded=0;entryX=0;entryY=0.5;entryDx=0;entryDy=0;" parent="1" edge="1">
          <mxGeometry width="50" height="50" relative="1" as="geometry">
            <mxPoint x="889.25" y="1164" as="sourcePoint" />
            <mxPoint x="905.75" y="1164.1999999999998" as="targetPoint" />
          </mxGeometry>
        </mxCell>
        <mxCell id="85L4JiEXR2BOAUFdr-4B-145" value="" style="endArrow=none;html=1;rounded=0;entryX=0;entryY=0.5;entryDx=0;entryDy=0;" parent="1" edge="1">
          <mxGeometry width="50" height="50" relative="1" as="geometry">
            <mxPoint x="873.5" y="1289" as="sourcePoint" />
            <mxPoint x="890" y="1289.1999999999998" as="targetPoint" />
          </mxGeometry>
        </mxCell>
        <mxCell id="85L4JiEXR2BOAUFdr-4B-146" value="" style="endArrow=none;html=1;rounded=0;" parent="1" edge="1">
          <mxGeometry width="50" height="50" relative="1" as="geometry">
            <mxPoint x="890" y="1288" as="sourcePoint" />
            <mxPoint x="889.25" y="1163" as="targetPoint" />
          </mxGeometry>
        </mxCell>
        <mxCell id="85L4JiEXR2BOAUFdr-4B-147" value="" style="endArrow=none;html=1;rounded=0;" parent="1" edge="1">
          <mxGeometry width="50" height="50" relative="1" as="geometry">
            <mxPoint x="270" y="1218" as="sourcePoint" />
            <mxPoint x="270" y="938" as="targetPoint" />
          </mxGeometry>
        </mxCell>
        <mxCell id="85L4JiEXR2BOAUFdr-4B-149" value="" style="endArrow=none;html=1;rounded=0;" parent="1" edge="1">
          <mxGeometry width="50" height="50" relative="1" as="geometry">
            <mxPoint x="269" y="1218" as="sourcePoint" />
            <mxPoint x="780" y="1218" as="targetPoint" />
          </mxGeometry>
        </mxCell>
        <mxCell id="85L4JiEXR2BOAUFdr-4B-150" value="" style="endArrow=none;html=1;rounded=0;entryX=0.943;entryY=0.513;entryDx=0;entryDy=0;entryPerimeter=0;" parent="1" edge="1">
          <mxGeometry width="50" height="50" relative="1" as="geometry">
            <mxPoint x="550" y="1218" as="sourcePoint" />
            <mxPoint x="551.22" y="1144.16" as="targetPoint" />
          </mxGeometry>
        </mxCell>
        <mxCell id="85L4JiEXR2BOAUFdr-4B-151" value="" style="endArrow=none;html=1;rounded=0;entryX=0.943;entryY=0.513;entryDx=0;entryDy=0;entryPerimeter=0;" parent="1" edge="1">
          <mxGeometry width="50" height="50" relative="1" as="geometry">
            <mxPoint x="500" y="1268" as="sourcePoint" />
            <mxPoint x="501.22" y="1218" as="targetPoint" />
          </mxGeometry>
        </mxCell>
        <mxCell id="85L4JiEXR2BOAUFdr-4B-152" value="" style="endArrow=none;html=1;rounded=0;entryX=0.175;entryY=0.25;entryDx=0;entryDy=0;entryPerimeter=0;" parent="1" edge="1">
          <mxGeometry width="50" height="50" relative="1" as="geometry">
            <mxPoint x="500" y="1268" as="sourcePoint" />
            <mxPoint x="546.37" y="1268" as="targetPoint" />
          </mxGeometry>
        </mxCell>
        <mxCell id="85L4JiEXR2BOAUFdr-4B-153" value="" style="endArrow=none;html=1;rounded=0;" parent="1" edge="1">
          <mxGeometry width="50" height="50" relative="1" as="geometry">
            <mxPoint x="410" y="744" as="sourcePoint" />
            <mxPoint x="410" y="1298" as="targetPoint" />
          </mxGeometry>
        </mxCell>
        <mxCell id="85L4JiEXR2BOAUFdr-4B-154" value="" style="endArrow=none;html=1;rounded=0;entryX=0.175;entryY=0.25;entryDx=0;entryDy=0;entryPerimeter=0;" parent="1" edge="1">
          <mxGeometry width="50" height="50" relative="1" as="geometry">
            <mxPoint x="410" y="1298" as="sourcePoint" />
            <mxPoint x="548.37" y="1298" as="targetPoint" />
          </mxGeometry>
        </mxCell>
        <mxCell id="85L4JiEXR2BOAUFdr-4B-156" value="" style="endArrow=none;html=1;rounded=0;entryX=0.943;entryY=0.513;entryDx=0;entryDy=0;entryPerimeter=0;" parent="1" edge="1">
          <mxGeometry width="50" height="50" relative="1" as="geometry">
            <mxPoint x="776.8199999999999" y="1268" as="sourcePoint" />
            <mxPoint x="778.04" y="1218" as="targetPoint" />
          </mxGeometry>
        </mxCell>
        <mxCell id="85L4JiEXR2BOAUFdr-4B-157" value="" style="endArrow=none;html=1;rounded=0;entryX=0.175;entryY=0.25;entryDx=0;entryDy=0;entryPerimeter=0;" parent="1" edge="1">
          <mxGeometry width="50" height="50" relative="1" as="geometry">
            <mxPoint x="776.8199999999999" y="1268" as="sourcePoint" />
            <mxPoint x="823.19" y="1268" as="targetPoint" />
          </mxGeometry>
        </mxCell>
        <mxCell id="85L4JiEXR2BOAUFdr-4B-158" value="" style="endArrow=none;html=1;rounded=0;" parent="1" edge="1">
          <mxGeometry width="50" height="50" relative="1" as="geometry">
            <mxPoint x="1380" y="1358" as="sourcePoint" />
            <mxPoint x="1380" y="608" as="targetPoint" />
          </mxGeometry>
        </mxCell>
        <mxCell id="85L4JiEXR2BOAUFdr-4B-159" value="" style="endArrow=none;html=1;rounded=0;entryX=0.175;entryY=0.25;entryDx=0;entryDy=0;entryPerimeter=0;" parent="1" edge="1">
          <mxGeometry width="50" height="50" relative="1" as="geometry">
            <mxPoint x="776.8199999999999" y="1308" as="sourcePoint" />
            <mxPoint x="823.19" y="1308" as="targetPoint" />
          </mxGeometry>
        </mxCell>
        <mxCell id="85L4JiEXR2BOAUFdr-4B-160" value="" style="endArrow=none;html=1;rounded=0;entryX=0.943;entryY=0.513;entryDx=0;entryDy=0;entryPerimeter=0;" parent="1" edge="1">
          <mxGeometry width="50" height="50" relative="1" as="geometry">
            <mxPoint x="775.78" y="1358" as="sourcePoint" />
            <mxPoint x="777" y="1308" as="targetPoint" />
          </mxGeometry>
        </mxCell>
        <mxCell id="85L4JiEXR2BOAUFdr-4B-161" value="" style="endArrow=none;html=1;rounded=0;" parent="1" edge="1">
          <mxGeometry width="50" height="50" relative="1" as="geometry">
            <mxPoint x="776.8199999999999" y="1358" as="sourcePoint" />
            <mxPoint x="1380" y="1358" as="targetPoint" />
          </mxGeometry>
        </mxCell>
        <mxCell id="85L4JiEXR2BOAUFdr-4B-162" value="" style="shape=xor;whiteSpace=wrap;html=1;" parent="1" vertex="1">
          <mxGeometry x="535.25" y="1570" width="60" height="80" as="geometry" />
        </mxCell>
        <mxCell id="85L4JiEXR2BOAUFdr-4B-163" value="" style="endArrow=none;html=1;rounded=0;entryX=0;entryY=0.5;entryDx=0;entryDy=0;" parent="1" edge="1">
          <mxGeometry width="50" height="50" relative="1" as="geometry">
            <mxPoint x="611" y="1485" as="sourcePoint" />
            <mxPoint x="627.5" y="1485.1999999999998" as="targetPoint" />
          </mxGeometry>
        </mxCell>
        <mxCell id="85L4JiEXR2BOAUFdr-4B-164" value="" style="endArrow=none;html=1;rounded=0;entryX=0;entryY=0.5;entryDx=0;entryDy=0;" parent="1" edge="1">
          <mxGeometry width="50" height="50" relative="1" as="geometry">
            <mxPoint x="595.25" y="1610" as="sourcePoint" />
            <mxPoint x="611.75" y="1610.1999999999998" as="targetPoint" />
          </mxGeometry>
        </mxCell>
        <mxCell id="85L4JiEXR2BOAUFdr-4B-165" value="" style="endArrow=none;html=1;rounded=0;" parent="1" edge="1">
          <mxGeometry width="50" height="50" relative="1" as="geometry">
            <mxPoint x="611" y="1610" as="sourcePoint" />
            <mxPoint x="611" y="1484" as="targetPoint" />
          </mxGeometry>
        </mxCell>
        <mxCell id="85L4JiEXR2BOAUFdr-4B-166" value="" style="endArrow=none;html=1;rounded=0;entryX=0.943;entryY=0.513;entryDx=0;entryDy=0;entryPerimeter=0;" parent="1" edge="1">
          <mxGeometry width="50" height="50" relative="1" as="geometry">
            <mxPoint x="390" y="1588" as="sourcePoint" />
            <mxPoint x="391.22" y="1218" as="targetPoint" />
          </mxGeometry>
        </mxCell>
        <mxCell id="85L4JiEXR2BOAUFdr-4B-167" value="" style="endArrow=none;html=1;rounded=0;entryX=0.175;entryY=0.25;entryDx=0;entryDy=0;entryPerimeter=0;" parent="1" target="85L4JiEXR2BOAUFdr-4B-162" edge="1">
          <mxGeometry width="50" height="50" relative="1" as="geometry">
            <mxPoint x="389.5" y="1588" as="sourcePoint" />
            <mxPoint x="406" y="1588.1999999999998" as="targetPoint" />
          </mxGeometry>
        </mxCell>
        <mxCell id="85L4JiEXR2BOAUFdr-4B-168" value="" style="endArrow=none;html=1;rounded=0;" parent="1" edge="1">
          <mxGeometry width="50" height="50" relative="1" as="geometry">
            <mxPoint x="560" y="1538" as="sourcePoint" />
            <mxPoint x="561.4" y="1464" as="targetPoint" />
          </mxGeometry>
        </mxCell>
        <mxCell id="85L4JiEXR2BOAUFdr-4B-169" value="" style="endArrow=none;html=1;rounded=0;" parent="1" edge="1">
          <mxGeometry width="50" height="50" relative="1" as="geometry">
            <mxPoint x="510" y="1539" as="sourcePoint" />
            <mxPoint x="560.8699999999999" y="1539" as="targetPoint" />
          </mxGeometry>
        </mxCell>
        <mxCell id="85L4JiEXR2BOAUFdr-4B-170" value="" style="endArrow=none;html=1;rounded=0;" parent="1" edge="1">
          <mxGeometry width="50" height="50" relative="1" as="geometry">
            <mxPoint x="511" y="1590" as="sourcePoint" />
            <mxPoint x="510.5999999999999" y="1540" as="targetPoint" />
          </mxGeometry>
        </mxCell>
        <mxCell id="85L4JiEXR2BOAUFdr-4B-171" value="" style="endArrow=none;html=1;rounded=0;" parent="1" edge="1">
          <mxGeometry width="50" height="50" relative="1" as="geometry">
            <mxPoint x="430" y="1628" as="sourcePoint" />
            <mxPoint x="431" y="822" as="targetPoint" />
          </mxGeometry>
        </mxCell>
        <mxCell id="85L4JiEXR2BOAUFdr-4B-172" value="" style="endArrow=none;html=1;rounded=0;entryX=0.175;entryY=0.25;entryDx=0;entryDy=0;entryPerimeter=0;" parent="1" edge="1">
          <mxGeometry width="50" height="50" relative="1" as="geometry">
            <mxPoint x="430" y="1628" as="sourcePoint" />
            <mxPoint x="546.5" y="1630" as="targetPoint" />
          </mxGeometry>
        </mxCell>
        <mxCell id="85L4JiEXR2BOAUFdr-4B-173" value="" style="endArrow=none;html=1;rounded=0;" parent="1" edge="1">
          <mxGeometry width="50" height="50" relative="1" as="geometry">
            <mxPoint x="470" y="1388" as="sourcePoint" />
            <mxPoint x="531.5999999999999" y="1389" as="targetPoint" />
          </mxGeometry>
        </mxCell>
        <mxCell id="85L4JiEXR2BOAUFdr-4B-174" value="" style="endArrow=none;html=1;rounded=0;" parent="1" edge="1">
          <mxGeometry width="50" height="50" relative="1" as="geometry">
            <mxPoint x="390" y="1058" as="sourcePoint" />
            <mxPoint x="522" y="1059" as="targetPoint" />
          </mxGeometry>
        </mxCell>
        <mxCell id="85L4JiEXR2BOAUFdr-4B-175" value="" style="endArrow=none;html=1;rounded=0;" parent="1" edge="1">
          <mxGeometry width="50" height="50" relative="1" as="geometry">
            <mxPoint x="471" y="1388" as="sourcePoint" />
            <mxPoint x="470" y="1058" as="targetPoint" />
          </mxGeometry>
        </mxCell>
        <mxCell id="85L4JiEXR2BOAUFdr-4B-176" value="" style="endArrow=classic;html=1;rounded=0;" parent="1" edge="1">
          <mxGeometry width="50" height="50" relative="1" as="geometry">
            <mxPoint x="310" y="1058" as="sourcePoint" />
            <mxPoint x="390" y="1058" as="targetPoint" />
          </mxGeometry>
        </mxCell>
        <mxCell id="85L4JiEXR2BOAUFdr-4B-177" value="flush_target" style="text;html=1;align=center;verticalAlign=middle;resizable=0;points=[];autosize=1;strokeColor=none;fillColor=none;" parent="1" vertex="1">
          <mxGeometry x="296" y="1036" width="90" height="30" as="geometry" />
        </mxCell>
        <mxCell id="85L4JiEXR2BOAUFdr-4B-178" value="" style="endArrow=classic;html=1;rounded=0;" parent="1" edge="1">
          <mxGeometry width="50" height="50" relative="1" as="geometry">
            <mxPoint x="735.6" y="1457" as="sourcePoint" />
            <mxPoint x="792.6" y="1457" as="targetPoint" />
          </mxGeometry>
        </mxCell>
        <mxCell id="85L4JiEXR2BOAUFdr-4B-179" value="araddr" style="text;html=1;align=center;verticalAlign=middle;resizable=0;points=[];autosize=1;strokeColor=none;fillColor=none;" parent="1" vertex="1">
          <mxGeometry x="732.6" y="1430" width="60" height="30" as="geometry" />
        </mxCell>
        <mxCell id="85L4JiEXR2BOAUFdr-4B-180" value="" style="endArrow=none;html=1;rounded=0;" parent="1" edge="1">
          <mxGeometry width="50" height="50" relative="1" as="geometry">
            <mxPoint x="734" y="1458" as="sourcePoint" />
            <mxPoint x="735" y="1415" as="targetPoint" />
          </mxGeometry>
        </mxCell>
        <mxCell id="85L4JiEXR2BOAUFdr-4B-181" value="" style="endArrow=classic;html=1;rounded=0;" parent="1" edge="1">
          <mxGeometry width="50" height="50" relative="1" as="geometry">
            <mxPoint x="724.75" y="1140" as="sourcePoint" />
            <mxPoint x="781.75" y="1140" as="targetPoint" />
          </mxGeometry>
        </mxCell>
        <mxCell id="85L4JiEXR2BOAUFdr-4B-182" value="out.pc" style="text;html=1;align=center;verticalAlign=middle;resizable=0;points=[];autosize=1;strokeColor=none;fillColor=none;" parent="1" vertex="1">
          <mxGeometry x="721.75" y="1113" width="60" height="30" as="geometry" />
        </mxCell>
        <mxCell id="85L4JiEXR2BOAUFdr-4B-184" value="" style="endArrow=none;html=1;rounded=0;entryX=0.943;entryY=0.513;entryDx=0;entryDy=0;entryPerimeter=0;exitX=0.018;exitY=0.947;exitDx=0;exitDy=0;exitPerimeter=0;" parent="1" source="85L4JiEXR2BOAUFdr-4B-182" edge="1">
          <mxGeometry width="50" height="50" relative="1" as="geometry">
            <mxPoint x="724" y="1167.92" as="sourcePoint" />
            <mxPoint x="725.22" y="1094.08" as="targetPoint" />
          </mxGeometry>
        </mxCell>
        <mxCell id="85L4JiEXR2BOAUFdr-4B-185" value="" style="endArrow=classic;html=1;rounded=0;" parent="1" edge="1">
          <mxGeometry width="50" height="50" relative="1" as="geometry">
            <mxPoint x="997" y="1094.92" as="sourcePoint" />
            <mxPoint x="1070" y="1095" as="targetPoint" />
          </mxGeometry>
        </mxCell>
        <mxCell id="85L4JiEXR2BOAUFdr-4B-186" value="out.pc_inc" style="text;html=1;align=center;verticalAlign=middle;resizable=0;points=[];autosize=1;strokeColor=none;fillColor=none;" parent="1" vertex="1">
          <mxGeometry x="990" y="1066" width="80" height="30" as="geometry" />
        </mxCell>
        <mxCell id="85L4JiEXR2BOAUFdr-4B-190" value="" style="endArrow=classic;html=1;rounded=0;entryX=-0.033;entryY=0.69;entryDx=0;entryDy=0;entryPerimeter=0;" parent="1" edge="1">
          <mxGeometry width="50" height="50" relative="1" as="geometry">
            <mxPoint x="711.98" y="362.79999999999995" as="sourcePoint" />
            <mxPoint x="790" y="363" as="targetPoint" />
          </mxGeometry>
        </mxCell>
        <mxCell id="85L4JiEXR2BOAUFdr-4B-191" value="rvalid" style="text;html=1;align=center;verticalAlign=middle;resizable=0;points=[];autosize=1;strokeColor=none;fillColor=none;" parent="1" vertex="1">
          <mxGeometry x="716.98" y="338" width="60" height="30" as="geometry" />
        </mxCell>
        <mxCell id="85L4JiEXR2BOAUFdr-4B-192" value="" style="endArrow=classic;html=1;rounded=0;entryX=-0.033;entryY=0.69;entryDx=0;entryDy=0;entryPerimeter=0;" parent="1" edge="1">
          <mxGeometry width="50" height="50" relative="1" as="geometry">
            <mxPoint x="781.98" y="362.79999999999995" as="sourcePoint" />
            <mxPoint x="860" y="363" as="targetPoint" />
          </mxGeometry>
        </mxCell>
        <mxCell id="85L4JiEXR2BOAUFdr-4B-193" value="valid_o" style="text;html=1;align=center;verticalAlign=middle;resizable=0;points=[];autosize=1;strokeColor=none;fillColor=none;" parent="1" vertex="1">
          <mxGeometry x="786.98" y="338" width="60" height="30" as="geometry" />
        </mxCell>
        <mxCell id="85L4JiEXR2BOAUFdr-4B-194" value="" style="endArrow=classic;html=1;rounded=0;entryX=-0.033;entryY=0.69;entryDx=0;entryDy=0;entryPerimeter=0;" parent="1" edge="1">
          <mxGeometry width="50" height="50" relative="1" as="geometry">
            <mxPoint x="1153.99" y="1100.8" as="sourcePoint" />
            <mxPoint x="1232.01" y="1101" as="targetPoint" />
          </mxGeometry>
        </mxCell>
        <mxCell id="85L4JiEXR2BOAUFdr-4B-195" value="arid" style="text;html=1;align=center;verticalAlign=middle;resizable=0;points=[];autosize=1;strokeColor=none;fillColor=none;" parent="1" vertex="1">
          <mxGeometry x="1163.99" y="1076" width="50" height="30" as="geometry" />
        </mxCell>
        <mxCell id="85L4JiEXR2BOAUFdr-4B-196" value="&#39;0" style="text;html=1;align=center;verticalAlign=middle;resizable=0;points=[];autosize=1;strokeColor=none;fillColor=none;" parent="1" vertex="1">
          <mxGeometry x="1129.99" y="1080" width="30" height="30" as="geometry" />
        </mxCell>
        <mxCell id="85L4JiEXR2BOAUFdr-4B-200" value="" style="endArrow=classic;html=1;rounded=0;entryX=-0.033;entryY=0.69;entryDx=0;entryDy=0;entryPerimeter=0;" parent="1" edge="1">
          <mxGeometry width="50" height="50" relative="1" as="geometry">
            <mxPoint x="1153.99" y="1145.8" as="sourcePoint" />
            <mxPoint x="1232.01" y="1146" as="targetPoint" />
          </mxGeometry>
        </mxCell>
        <mxCell id="85L4JiEXR2BOAUFdr-4B-201" value="arburst" style="text;html=1;align=center;verticalAlign=middle;resizable=0;points=[];autosize=1;strokeColor=none;fillColor=none;" parent="1" vertex="1">
          <mxGeometry x="1153.99" y="1121" width="70" height="30" as="geometry" />
        </mxCell>
        <mxCell id="85L4JiEXR2BOAUFdr-4B-202" value="AXI_BURST_INCR" style="text;html=1;align=center;verticalAlign=middle;resizable=0;points=[];autosize=1;strokeColor=none;fillColor=none;" parent="1" vertex="1">
          <mxGeometry x="1039.99" y="1123" width="120" height="30" as="geometry" />
        </mxCell>
        <mxCell id="85L4JiEXR2BOAUFdr-4B-203" value="" style="endArrow=classic;html=1;rounded=0;entryX=-0.033;entryY=0.69;entryDx=0;entryDy=0;entryPerimeter=0;" parent="1" edge="1">
          <mxGeometry width="50" height="50" relative="1" as="geometry">
            <mxPoint x="1152.98" y="1192.8" as="sourcePoint" />
            <mxPoint x="1231" y="1193" as="targetPoint" />
          </mxGeometry>
        </mxCell>
        <mxCell id="85L4JiEXR2BOAUFdr-4B-204" value="arsize" style="text;html=1;align=center;verticalAlign=middle;resizable=0;points=[];autosize=1;strokeColor=none;fillColor=none;" parent="1" vertex="1">
          <mxGeometry x="1157.98" y="1168" width="60" height="30" as="geometry" />
        </mxCell>
        <mxCell id="85L4JiEXR2BOAUFdr-4B-206" value="AXI_SIZE_4" style="text;html=1;align=center;verticalAlign=middle;resizable=0;points=[];autosize=1;strokeColor=none;fillColor=none;" parent="1" vertex="1">
          <mxGeometry x="1073.99" y="1168" width="90" height="30" as="geometry" />
        </mxCell>
        <mxCell id="85L4JiEXR2BOAUFdr-4B-207" value="" style="endArrow=classic;html=1;rounded=0;entryX=-0.033;entryY=0.69;entryDx=0;entryDy=0;entryPerimeter=0;" parent="1" edge="1">
          <mxGeometry width="50" height="50" relative="1" as="geometry">
            <mxPoint x="1148.97" y="1232.8" as="sourcePoint" />
            <mxPoint x="1226.99" y="1233" as="targetPoint" />
          </mxGeometry>
        </mxCell>
        <mxCell id="85L4JiEXR2BOAUFdr-4B-208" value="arlen" style="text;html=1;align=center;verticalAlign=middle;resizable=0;points=[];autosize=1;strokeColor=none;fillColor=none;" parent="1" vertex="1">
          <mxGeometry x="1158.97" y="1208" width="50" height="30" as="geometry" />
        </mxCell>
        <mxCell id="85L4JiEXR2BOAUFdr-4B-209" value="7" style="text;html=1;align=center;verticalAlign=middle;resizable=0;points=[];autosize=1;strokeColor=none;fillColor=none;" parent="1" vertex="1">
          <mxGeometry x="1127.98" y="1208" width="30" height="30" as="geometry" />
        </mxCell>
      </root>
    </mxGraphModel>
  </diagram>
</mxfile>
